<svg xmlns="http://www.w3.org/2000/svg" viewBox="680 545 2854 1237" fill="#F2EDE6" role="img" aria-label="Reviere Studio">
 <g fill="#F2EDE6">
  <path d="M1602.43 1762.20 c-0.93 -1.55 -0.31 -5.89 1.55 -9.31 3.41 -6.52 48.09 -71.98 79.11 -116.34 17.37 -24.51 71.05 -94.94 89.35 -117.27 6.83 -8.07 11.48 -15.51 10.55 -16.75 -2.48 -2.17 -23.89 3.72 -88.42 24.20 -47.78 15.20 -48.40 15.51 -69.50 35.37 -32.89 31.33 -60.81 42.50 -73.53 29.78 -3.72 -3.72 -6.52 -7.76 -6.52 -9.31 0 -11.17 33.82 -32.58 73.84 -46.85 11.79 -4.34 19.24 -8.69 19.24 -11.48 0 -3.41 -2.17 -4.03 -7.14 -2.79 -4.03 0.93 -17.37 2.79 -29.47 3.72 -26.99 2.48 -37.85 -2.48 -37.85 -17.68 0 -21.41 55.53 -63.60 80.97 -61.12 13.03 1.24 19.24 11.48 14.89 23.89 -3.41 8.69 -17.68 25.13 -22.03 25.13 -5.89 0 -5.89 -9.62 0.31 -17.37 9.62 -12.41 8.69 -17.99 -3.10 -15.51 -12.10 2.17 -42.19 22.34 -50.26 33.51 -10.24 13.65 -5.27 15.82 33.82 13.34 l35.06 -2.17 2.17 8.07 c1.55 6.20 3.41 7.76 7.14 6.52 6.20 -2.48 72.91 -23.27 112 -35.06 l29.47 -8.69 42.81 -50.88 42.50 -51.19 -12.10 -0.93 c-6.83 -0.62 -43.43 2.17 -81.59 5.58 -116.34 11.17 -111.07 11.17 -111.07 3.72 0 -4.65 2.48 -6.52 10.24 -7.76 15.51 -2.79 103.62 -11.48 159.16 -15.51 l49.95 -3.72 58.95 -65.15 c32.27 -35.68 61.12 -67.01 63.91 -69.50 4.65 -3.72 5.27 -13.96 5.27 -97.73 l-0.31 -93.38 -9.31 15.51 c-4.96 8.69 -26.37 47.47 -47.78 86.25 -21.10 38.78 -57.71 105.48 -81.28 147.99 l-42.81 77.56 -61.12 0 -60.81 0 -18.61 -33.20 c-10.24 -18.61 -42.50 -78.18 -71.98 -132.79 -29.16 -54.60 -54.60 -100.52 -56.15 -102.07 -1.55 -1.86 -2.79 7.45 -2.79 23.89 l0 26.99 -215.31 0 -215.62 0 2.79 9.31 c16.44 57.09 71.36 91.21 147.37 91.21 53.36 0.31 89.97 -11.79 116.96 -38.78 l14.58 -14.58 56.78 20.17 c31.33 11.17 58.02 21.41 59.26 22.65 3.41 3.10 -20.17 36.92 -39.40 56.46 -32.58 33.20 -76.01 56.78 -131.23 71.36 -23.89 6.20 -34.44 7.14 -83.15 6.83 -49.95 0 -58.95 -0.93 -85.63 -8.07 -123.79 -33.51 -200.73 -125.34 -209.42 -249.75 -3.41 -50.26 6.83 -107.35 25.75 -144.89 4.03 -8.07 6.83 -16.75 5.89 -18.93 -1.86 -5.27 -28.23 -10.86 -49.33 -10.86 -51.19 0.31 -100.21 30.71 -121.31 75.70 -5.89 12.10 -12.10 29.47 -13.96 38.47 -2.17 10.55 -3.41 68.87 -3.41 163.81 l0 147.06 -73.53 -0.62 -73.84 -0.93 -0.93 -272.09 -0.62 -272.40 64.84 0 64.84 0 2.17 33.20 2.17 33.20 6.52 -9 c32.58 -46.54 92.76 -72.91 158.54 -68.87 45.92 2.79 83.46 15.20 115.10 37.85 l13.96 9.62 26.99 -13.34 c15.20 -7.45 41.26 -17.06 58.33 -21.72 27.92 -7.45 36.61 -8.07 85.32 -8.07 49.02 0 57.40 0.62 85.01 8.07 17.06 4.65 40.33 13.03 52.12 18.93 11.48 5.89 21.10 9.93 21.10 9.31 0 -0.93 -2.79 -6.83 -6.20 -13.65 -3.41 -6.83 -6.20 -13.03 -6.20 -13.96 0 -0.93 35.99 -1.55 80.35 -1.55 l80.35 0 19.24 38.16 c10.86 20.79 28.23 53.98 38.78 73.53 61.43 113.24 96.49 188.32 129.06 277.67 5.58 15.20 7.45 17.37 9.31 12.41 1.55 -3.41 11.79 -31.33 22.96 -62.05 22.03 -60.19 46.54 -111.38 119.13 -249.75 l46.23 -88.42 99.59 -0.93 99.59 -0.62 0 38.78 c0 21.41 1.24 38.78 2.48 38.78 1.24 0 7.45 -4.96 13.34 -11.17 25.44 -27.30 77.56 -54.29 129.06 -67.01 22.96 -5.89 35.68 -6.83 80.04 -6.83 46.85 0.31 56.15 1.24 83.46 8.38 49.64 13.34 83.46 31.65 116.34 62.98 l28.23 26.68 0 -45.30 0 -45.30 63.29 0 63.60 0 1.86 17.99 c0.93 9.62 2.48 23.58 3.41 31.02 l1.55 13.34 20.17 -21.72 c15.20 -16.44 26.06 -24.82 42.50 -32.89 65.15 -31.96 151.40 -25.13 214.07 17.37 l17.68 12.10 11.79 -7.14 c18.93 -11.79 56.15 -26.06 84.39 -32.27 19.55 -4.03 39.09 -5.58 76.01 -5.27 60.81 0 90.59 6.52 136.51 29.16 54.91 26.99 89.66 61.43 116.34 116.34 8.38 17.06 17.99 42.50 21.72 56.46 7.76 31.02 13.03 81.59 11.79 111.07 l-0.93 21.72 -214.69 0.93 c-134.03 0.31 -215 1.86 -215 3.72 0 1.55 2.79 10.55 6.52 20.17 21.41 57.40 102.69 90.28 184.29 74.46 31.96 -5.89 53.98 -16.75 73.84 -35.37 l16.44 -15.51 57.09 20.79 c31.33 11.48 57.40 22.34 58.02 24.20 2.17 6.52 -37.23 54.91 -58.02 71.67 -26.68 21.72 -68.87 42.50 -107.04 52.74 -27.92 7.45 -36.61 8.07 -86.87 8.38 -43.43 0 -60.50 -0.93 -77.56 -5.27 -60.50 -15.20 -103 -38.47 -142.71 -78.18 -23.58 -23.27 -30.71 -33.20 -44.06 -59.26 -25.75 -49.95 -30.40 -70.12 -30.40 -134.65 0 -60.81 3.41 -79.73 22.03 -120.69 5.89 -12.41 9.93 -23.89 9 -25.13 -0.93 -1.55 -8.69 -4.03 -17.37 -5.89 -44.68 -9.62 -92.76 2.79 -127.20 33.20 -13.34 11.79 -30.09 38.47 -37.85 60.50 -2.48 6.52 -4.03 62.05 -5.27 168.15 l-1.55 158.23 -73.53 0.93 -73.84 0.62 0 -40.33 c0 -22.03 -0.31 -40.33 -0.93 -40.33 -0.62 0 -7.76 6.52 -15.82 14.27 -27.92 26.68 -69.19 49.64 -111.38 62.36 -40.33 12.10 -104.55 16.75 -142.09 10.55 l-14.58 -2.48 -54.91 53.98 c-49.95 49.33 -54.60 54.91 -53.67 63.60 0.62 8.07 -0.62 10.55 -8.38 14.89 -6.52 3.72 -11.17 9.93 -15.20 21.41 -7.45 20.79 -4.96 23.89 20.17 22.96 39.09 -1.55 121 -36.61 152.02 -65.15 9.62 -9 19.55 -16.44 22.34 -16.44 10.55 0 6.83 9.62 -12.41 31.33 -22.65 26.06 -29.78 37.54 -28.23 47.16 1.55 10.24 13.65 9.93 45.61 -0.62 31.33 -10.55 95.25 -41.57 121.31 -58.95 21.10 -14.27 36.61 -20.79 40.33 -17.06 1.24 1.55 3.10 5.58 3.72 9 0.62 4.34 6.83 8.69 19.55 13.96 16.13 6.52 23.58 7.76 54.29 7.76 30.71 0 37.85 -0.93 50.88 -7.14 16.75 -7.45 25.13 -5.27 18.61 4.96 -7.14 11.48 -31.65 17.37 -69.50 17.37 -31.33 0 -38.16 -1.24 -57.40 -8.69 -34.13 -13.34 -31.33 -13.65 -33.51 4.34 -2.17 17.37 -15.82 42.19 -29.47 52.74 -9.93 8.07 -26.06 8.07 -33.20 0 -4.34 -4.96 -5.27 -9.31 -3.72 -21.72 0.93 -8.38 1.55 -15.51 0.93 -15.51 -0.62 0 -14.27 6.20 -30.09 13.65 -35.06 16.75 -74.15 29.78 -88.73 29.78 -7.14 0 -13.03 -2.48 -17.99 -7.76 -8.69 -8.38 -9.62 -17.99 -3.10 -29.47 2.48 -4.34 4.34 -8.69 4.65 -9.93 0 -1.24 -13.03 4.03 -28.54 11.48 -34.75 16.13 -62.05 25.44 -89.97 30.09 -18.61 3.10 -21.72 2.79 -32.58 -2.79 -10.55 -5.58 -11.79 -7.76 -12.72 -19.24 -0.62 -7.45 1.24 -17.06 3.72 -22.65 2.79 -5.27 4.34 -10.24 3.72 -11.17 -0.93 -0.62 -13.03 8.38 -27.30 20.17 -34.44 28.85 -44.06 35.06 -53.05 35.06 -12.10 0 -16.13 -7.45 -12.10 -20.79 1.86 -6.52 3.10 -11.79 2.79 -12.41 -0.62 -0.31 -14.89 5.58 -31.96 13.03 -17.06 7.76 -41.57 16.44 -54.60 19.24 -22.34 4.65 -23.89 4.65 -35.37 -0.93 -14.89 -7.14 -19.24 -17.99 -14.58 -35.37 3.41 -12.72 1.24 -15.82 -5.27 -7.76 -4.96 5.89 -50.26 34.75 -60.81 38.78 -6.20 2.48 -9.93 2.17 -15.51 -1.55 -15.51 -9.93 -5.58 -33.51 27.92 -66.70 16.13 -15.51 17.68 -16.44 22.34 -11.79 4.96 4.65 4.03 6.52 -13.34 24.82 -55.53 58.64 -29.47 52.12 51.81 -12.72 19.55 -15.51 37.85 -27.92 40.33 -27.61 9 1.86 6.52 12.10 -7.76 29.47 -51.50 62.98 -26.37 75.70 67.32 34.75 14.89 -6.52 40.95 -20.48 58.02 -30.71 35.37 -21.41 51.50 -27.92 69.81 -27.92 10.24 0 14.89 -1.86 21.10 -8.38 13.96 -15.51 70.74 -90.59 70.74 -93.69 0 -1.86 -2.17 -3.41 -4.96 -3.41 -8.38 0 -49.95 -18.61 -68.56 -30.71 -9.93 -6.52 -26.06 -18.93 -35.68 -27.92 l-17.99 -16.44 0 40.95 0 41.26 -28.54 -1.55 c-17.37 -0.93 -26.06 -0.62 -21.72 0.93 3.72 1.55 6.83 4.65 6.83 7.45 0 4.03 -13.34 4.65 -109.21 4.96 -60.19 0 -111.69 0.93 -114.48 2.17 -7.14 3.10 -104.24 119.76 -161.33 194.52 -51.81 67.32 -113.86 156.67 -130.61 187.39 -5.27 9.31 -15.51 13.03 -19.55 6.52z m1.55 -199.18 c11.17 -8.07 14.27 -11.48 9.31 -10.24 -11.48 3.10 -44.37 21.41 -45.61 25.44 -2.17 6.52 18.61 -2.17 36.30 -15.20z m927.02 -24.82 c8.69 -9.62 19.24 -33.20 19.24 -43.74 l0 -9 -12.41 9.93 c-13.96 10.86 -24.82 29.47 -24.82 41.88 0 9.93 8.69 10.55 17.99 0.93z m-354.61 -35.06 c33.51 -28.23 37.54 -36.92 10.24 -22.96 -31.33 15.51 -55.22 39.09 -55.22 53.98 0 6.20 0.31 5.89 44.99 -31.02z m152.95 -142.71 c-0.93 -0.93 -7.76 5.58 -14.89 14.58 l-13.34 16.44 14.89 -14.58 c8.38 -8.07 14.27 -15.51 13.34 -16.44z m-297.22 -64.22 c0 -50.88 -0.62 -58.95 -4.34 -55.22 -9 9.93 -69.50 77.56 -85.01 95.56 l-16.75 19.24 53.05 0 53.05 0 0 -59.57z m423.49 -103.93 c28.23 -28.23 50.88 -51.81 50.26 -51.81 -0.31 -0.31 -54.91 0 -121.31 0.62 l-120.38 0.93 1.55 9 c9.31 46.23 55.84 81.59 117.58 89.66 10.86 1.55 19.86 2.79 20.48 3.10 0.62 0 23.89 -22.96 51.81 -51.50z m13.34 29.47 c42.81 -44.68 67.01 -74.46 65.15 -80.35 -2.17 -6.20 -104.86 93.07 -104.86 100.83 0 0.93 4.03 1.86 9 1.86 7.14 0 13.65 -4.65 30.71 -22.34z m36.92 2.17 c6.83 -4.34 18.30 -13.96 24.82 -21.41 l12.10 -13.96 43.12 15.51 c23.58 8.38 44.06 15.20 45.61 15.20 1.24 0 2.48 -17.37 2.48 -38.78 l0 -38.78 -40.02 0 -39.71 0 -7.76 11.79 c-4.34 6.52 -20.17 25.75 -35.37 42.50 -39.09 44.06 -38.16 42.81 -27.30 38.78 4.96 -1.86 14.89 -6.83 22.03 -10.86z m-1107.27 -197.94 l38.16 -0.62 -11.17 -22.34 c-23.27 -46.85 -74.15 -75.39 -133.41 -75.39 -65.46 0.31 -121.31 34.75 -139.61 86.87 -2.17 6.52 -3.72 12.41 -3.10 13.03 0.93 0.93 176.84 0 249.13 -1.55z m1976.27 -0.62 c0.93 -0.62 -2.79 -10.24 -7.76 -21.10 -47.47 -101.45 -219.97 -102.38 -268.67 -1.55 -4.65 9.62 -8.38 19.55 -8.38 21.72 0 3.41 26.37 3.72 141.78 3.10 78.18 -0.62 142.40 -1.55 143.02 -2.17z m-829.91 -12.41 c-10.86 -31.96 -42.50 -61.74 -80.66 -76.01 -22.96 -8.69 -65.15 -11.48 -91.52 -6.20 -44.68 8.69 -81.28 34.44 -98.66 69.19 -4.96 10.24 -9.31 20.48 -9.31 22.96 0 3.41 25.44 4.03 142.40 4.03 l142.71 0 -4.96 -13.96z"/>
  <path d="M2427.68 1445.75 c-3.10 -4.65 0.93 -13.65 9 -21.41 13.65 -12.72 19.86 0.93 7.76 16.44 -6.52 8.38 -13.34 10.24 -16.75 4.96z"/>
  <path d="M2035.22 643.76 l0 -88.42 72.91 0 72.91 0 0 88.42 0 88.42 -72.91 0 -72.91 0 0 -88.42z"/>
 </g>
</svg>